<?xml version="1.0" encoding="utf-8"?>
<!-- Generator: Adobe Illustrator 24.3.0, SVG Export Plug-In . SVG Version: 6.00 Build 0)  -->
<svg version="1.1" id="Layer_2_1_" xmlns="http://www.w3.org/2000/svg" xmlns:xlink="http://www.w3.org/1999/xlink" x="0px" y="0px"
	 viewBox="0 0 932.6 295.6" style="enable-background:new 0 0 932.6 295.6;" xml:space="preserve">
<style type="text/css">
	.st0{fill:#0069B1;}
	.st1{fill:#E12E56;}
</style>
<g>
	<g>
		<path class="st0" d="M278.8,157.5c0,1.2,0,2.2,0,3.2c0,1.2,0,2.2-0.1,3.2h-77.6c0.1,4.1,1,7.9,2.8,11.6c1.8,3.7,4,6.7,6.9,9.4
			c2.9,2.6,6.2,4.7,10,6.3c3.8,1.5,7.8,2.2,12,2.2c6.6,0,12.3-1.5,17.2-4.3c4.8-2.9,8.5-6.5,11.3-10.6l13.6,10.9
			c-5.3,6.9-11.3,12-18.5,15.3c-7,3.2-15,4.8-23.6,4.8c-7.5,0-14.2-1.2-20.5-3.7s-11.7-5.9-16.3-10.4c-4.5-4.4-8.1-9.8-10.7-16.1
			c-2.6-6.3-4-13.3-4-21c0-7.5,1.3-14.5,3.8-21c2.5-6.5,6.2-11.9,10.6-16.4c4.5-4.5,10-8.1,16.1-10.6c6.2-2.5,12.9-3.8,19.9-3.8
			c7.2,0,13.6,1.2,19.5,3.5c5.9,2.3,10.9,5.7,14.8,10.1c4.1,4.4,7.2,9.7,9.4,16C277.8,142.7,278.8,149.7,278.8,157.5z M259.1,149.7
			c-0.1-3.8-0.7-7.5-1.9-10.9c-1.2-3.4-2.9-6.3-5.1-8.8s-5.1-4.4-8.5-5.9c-3.4-1.5-7.3-2.2-11.9-2.2c-4.1,0-8.1,0.7-11.6,2.2
			c-3.7,1.5-6.7,3.4-9.5,5.9c-2.6,2.5-4.8,5.4-6.6,8.8c-1.8,3.4-2.8,7-2.9,10.9H259.1z"/>
		<polygon class="st0" points="474.3,109.5 452.2,184.8 428.3,109.5 407.9,109.5 384.4,184.8 362.1,109.5 341.1,109.5 373.7,207.2 
			393.8,207.2 417.7,133.9 418.1,133.9 442.2,207.2 462.4,207.2 494.7,109.5 		"/>
		<path class="st0" d="M598.1,158.1c0,7.6-1.3,14.5-4,20.8c-2.6,6.3-6.5,11.7-11.1,16.4c-4.7,4.5-10.3,8.2-16.7,10.7
			c-6.5,2.5-13.3,3.8-20.8,3.8c-7.5,0-14.4-1.3-20.8-3.8c-6.5-2.5-12-6.2-16.7-10.7c-4.7-4.5-8.4-10.1-11-16.4
			c-2.6-6.3-4-13.2-4-20.8c0-7.5,1.3-14.5,4-20.7c2.6-6.3,6.3-11.6,11-16.1c4.7-4.5,10.3-8.1,16.7-10.6c6.5-2.5,13.3-3.8,20.8-3.8
			c7.5,0,14.4,1.3,20.8,3.8c6.5,2.5,12,6,16.7,10.6s8.5,10,11.1,16.1C596.8,143.7,598.1,150.6,598.1,158.1z M577.9,158.2
			c0-4.7-0.7-9.1-2.2-13.3c-1.5-4.3-3.5-7.9-6.3-11.1c-2.8-3.2-6.2-5.7-10.3-7.8c-4.1-1.9-8.7-2.9-13.9-2.9c-5.3,0-9.8,1-13.9,2.9
			c-4.1,1.9-7.5,4.5-10.3,7.8s-4.8,6.9-6.3,11.1c-1.5,4.3-2.2,8.7-2.2,13.3c0,4.7,0.7,9.1,2.2,13.3s3.5,8.1,6.3,11.3
			c2.8,3.2,6.2,5.9,10.3,7.8c4.1,1.9,8.7,2.9,13.9,2.9c5.3,0,9.8-1,13.9-2.9s7.5-4.5,10.3-7.8c2.8-3.2,4.8-7,6.3-11.3
			C577.3,167.3,577.9,162.9,577.9,158.2z"/>
		<rect x="672.6" y="79.3" class="st0" width="19.4" height="127.9"/>
		<path class="st0" d="M333.4,124.3v-14.8H309V79.3h-19.2v99c0,10.1,2.5,17.7,7.3,22.9c4.8,5.1,11.9,7.6,21.1,7.6
			c3.1,0,5.9-0.3,8.8-0.7c2.3-0.4,4.4-0.9,6.3-1.6v-16c-1.5,0.6-3.1,1-4.8,1.5c-2.1,0.4-4,0.6-5.7,0.6c-4.8,0-8.4-1.3-10.6-3.8
			c-2.2-2.5-3.2-6.7-3.2-12.6v-51.8H333.4z"/>
		<path class="st0" d="M656.2,106.9c-6.6,0-12.5,1.8-17.7,5.3c-5.3,3.5-10,8.1-12.6,13.9v-16.6h-18.3v97.7h19.4v-51.3
			c0-4.1,0.6-8.1,1.6-11.9c1-3.8,2.8-7,5-10c2.2-2.9,5.1-5.1,8.5-6.9s7.5-2.6,12.2-2.6c3.1,0,6,0.3,8.8,1v-18
			C661.1,107,658.9,106.9,656.2,106.9z"/>
		<path class="st0" d="M168.9,131.1c-1.5-4.8-3.7-8.9-6.7-12.6c-3.1-3.5-6.7-6.5-11.3-8.5c-4.5-2.1-10-3.2-16.3-3.2
			c-3.5,0-7,0.4-10.3,1.5c-3.2,1-6.3,2.3-9.1,4c-2.8,1.8-5.1,3.7-7.3,6c-2.2,2.2-4.4,4.7-5.7,7.3l0,0v-16H84v97.7l0,0h19.4l0,0
			v-51.9c0-9.7,2.5-17.6,7.3-23.3c4.8-5.9,11.1-8.8,18.8-8.8c4.5,0,8.2,0.9,11.1,2.5c2.9,1.6,5.1,3.8,6.7,6.6
			c1.6,2.8,2.8,5.9,3.4,9.5c0.6,3.5,0.9,7.3,0.9,11.3v54.1h19.5v-60.6C171.1,141.1,170.4,135.9,168.9,131.1z"/>
		<polygon class="st0" points="733.2,109.5 757.1,109.5 715.9,158.7 756.5,207.2 732.6,207.2 692,158.7 		"/>
	</g>
	<polygon class="st1" points="803.8,109.5 779.9,109.5 821.1,158.7 780.5,207.2 804.4,207.2 845,158.7 	"/>
</g>
</svg>
